<?xml version="1.0" encoding="UTF-8" standalone="no"?>
<!-- Created with OpenSCAD & Inkscape.org -->
<svg
   xmlns:dc="http://purl.org/dc/elements/1.1/"
   xmlns:cc="http://creativecommons.org/ns#"
   xmlns:rdf="http://www.w3.org/1999/02/22-rdf-syntax-ns#"
   xmlns:svg="http://www.w3.org/2000/svg"
   xmlns="http://www.w3.org/2000/svg"
   id="svg3761"
   version="1.1"
   viewBox="0 0 92 33.5"
   height="33.5mm"
   width="92mm">
  <defs
     id="defs3755" />
  <metadata
     id="metadata3758">
    <rdf:RDF>
      <cc:Work
         rdf:about="">
        <dc:format>image/svg+xml</dc:format>
        <dc:type
           rdf:resource="http://purl.org/dc/dcmitype/StillImage" />
        <dc:title></dc:title>
      </cc:Work>
    </rdf:RDF>
  </metadata>
  <g
     transform="translate(-35.642859,-30.029762)"
     id="layer1">
    <path
       style="fill:none;stroke:#000000;stroke-width:0.5"
       d="m 42.033869,31.779762 h 2.89424 l -0.375,-1.5 h 2.99995 l -0.375,1.5 h 15.070599 l -0.375,-1.5 h 3 l -0.375,1.5 h 2.8942 m -24.855769,30 h 7.535269 l 1.4471,-2.50647 -1.4865,-0.42525 1.5,-2.59807 1.1115,1.07476 5.8365,-10.10917 1.1116,1.0748 1.5,-2.5981 -1.4866,-0.4252 1.4471,-2.5065 -2.5064,-1.4471 -0.4253,1.4865 -2.5981,-1.5 1.0748,-1.1115 -10.109099,-5.8366 -0.4253,1.4866 -2.59806,-1.5 1.07475,-1.1116 -2.50648,-1.4471 h -4.64101 v 2.8942 l -1.5,-0.375 v 3 l 1.5,-0.375 v 19.71157 l -1.5,-0.375 v 3 l 1.5,-0.375 v 2.89423 h 2.89423 l -0.375,1.5 h 3 z m 54.855768,-2.89423 -1.5,0.375 v -3 l 1.5,0.375 v -19.71157 l -1.5,0.375 v -3 l 1.5,0.375 v -2.8942 h -2.8942 l 0.375,1.5 h -3 l 0.375,-1.5 H 72.537058 l 0.375,1.5 h -3 l 0.375,-1.5 h -2.8942 v 2.8942 l 1.5,-0.375 v 3 l -1.5,-0.375 v 19.71157 l 1.5,-0.375 v 3 l -1.5,-0.375 v 2.89423 h 2.8942 l -0.375,-1.5 h 3 l -0.375,1.5 h 19.711599 l -0.375,-1.5 h 3 l -0.375,1.5 h 2.8942 z m 27.105803,2.89423 h 2.8942 v -30 H 97.392857 l 3.767603,6.5257 1.1116,-1.0747 1.5,2.598 -1.4866,0.4253 2.8943,5.013 -1.4866,0.4252 1.5,2.5981 1.1116,-1.0748 5.8365,10.10917 1.1115,-1.07476 1.5,2.59807 -1.4865,0.42525 1.4471,2.50647 h 7.5353 l -0.375,1.5 h 3 z m -57.105802,-30 -3.7676,6.5257 -1.1116,-1.0747 -1.5,2.598 1.4866,0.4253 -1.4472,2.5065 m 6.3398,19.0192 h -12.1763 l 0.375,-1.5 h -3 l 0.375,1.5 h -2.8942 m 64.641002,0 h -2.8942 l 0.375,-1.5 h -3 l 0.375,1.5 H 97.392857"
       id="path3765" />
  </g>
</svg>
